<?xml version="1.0" encoding="UTF-8" standalone="no"?>
<svg
   xmlns:dc="http://purl.org/dc/elements/1.1/"
   xmlns:cc="http://creativecommons.org/ns#"
   xmlns:rdf="http://www.w3.org/1999/02/22-rdf-syntax-ns#"
   xmlns:svg="http://www.w3.org/2000/svg"
   xmlns="http://www.w3.org/2000/svg"
   xmlns:sodipodi="http://sodipodi.sourceforge.net/DTD/sodipodi-0.dtd"
   xmlns:inkscape="http://www.inkscape.org/namespaces/inkscape"
   version="1.1"
   id="svg2"
   width="1220.7405"
   height="541.97064"
   viewBox="0 0 1220.7404 541.97064"
   sodipodi:docname="montaigne_logo.svg"
   inkscape:version="1.0.2 (e86c870879, 2021-01-15)">
  <metadata
     id="metadata8">
    <rdf:RDF>
      <cc:Work
         rdf:about="">
        <dc:format>image/svg+xml</dc:format>
        <dc:type
           rdf:resource="http://purl.org/dc/dcmitype/StillImage" />
        <dc:title />
      </cc:Work>
    </rdf:RDF>
  </metadata>
  <defs
     id="defs6">
    <filter
       inkscape:collect="always"
       style="color-interpolation-filters:sRGB"
       id="filter860"
       x="-1.7517441e-05"
       width="1.000035"
       y="-9.7486044e-06"
       height="1.0000195">
      <feGaussianBlur
         inkscape:collect="always"
         stdDeviation="0.0017627111"
         id="feGaussianBlur862" />
    </filter>
    <filter
       inkscape:collect="always"
       style="color-interpolation-filters:sRGB"
       id="filter864"
       x="-3.465525e-06"
       width="1.0000069"
       y="-7.8057857e-06"
       height="1.0000156">
      <feGaussianBlur
         inkscape:collect="always"
         stdDeviation="0.0017627111"
         id="feGaussianBlur866" />
    </filter>
  </defs>
  <sodipodi:namedview
     pagecolor="#ffffff"
     bordercolor="#666666"
     borderopacity="1"
     objecttolerance="10"
     gridtolerance="10"
     guidetolerance="10"
     inkscape:pageopacity="0"
     inkscape:pageshadow="2"
     inkscape:window-width="1312"
     inkscape:window-height="704"
     id="namedview4"
     showgrid="false"
     showguides="false"
     inkscape:zoom="0.49363369"
     inkscape:cx="334.39881"
     inkscape:cy="494.79434"
     inkscape:window-x="0"
     inkscape:window-y="0"
     inkscape:window-maximized="1"
     inkscape:current-layer="g10"
     inkscape:document-rotation="0" />
  <g
     inkscape:groupmode="layer"
     inkscape:label="Image"
     id="g10"
     transform="translate(-207.58282,-7.4047723)">
    <path
       id="rect843"
       style="opacity:0.998;fill:#7f7f7f;fill-opacity:1;stroke:none;filter:url(#filter864)"
       d="M 207.58282,7.4047709 H 1428.3233 V 549.37541 H 207.58282 Z" />
    <g
       id="g850"
       style="filter:url(#filter860)"
       transform="translate(-15.910589,1.3924049)">
      <path
         id="path14"
         style="fill:#1b1b1b;fill-opacity:1;stroke:#1b1b1b;stroke-width:1px;stroke-linecap:butt;stroke-linejoin:miter;stroke-opacity:1"
         d="m 379.64087,75.410012 c -18.19931,15.452528 1.82292,52.105788 23.74113,49.306278 19.8157,-6.66656 19.17016,-36.996877 41.96455,-39.587238 50.0722,-3.429833 79.26035,34.074168 82.16402,77.303468 0.006,40.97042 -4.55583,82.81701 7.21643,122.74954 -4.20934,69.50054 -42.94973,138.19422 -90.01571,153.81974 -8.72133,1.47582 -11.17032,2.5134 -22.41909,-0.34626 -28.17637,-13.88675 -34.06673,-19.56594 -60.33996,-4.04088 -14.62661,5.72865 -16.64907,2.68024 -26.29178,-4.57376 5.92044,17.92409 13.47856,24.30985 17.73048,30.66047 11.95116,15.88145 28.16775,39.61764 51.29788,31.70468 68.82038,-28.92737 121.44949,-80.02648 136.06083,-148.91118 3.01009,-21.13413 4.70094,-42.91233 11.13504,-63.24115 C 605.13261,175.40308 485.92763,8.440235 379.64087,75.410012 Z"
         sodipodi:nodetypes="cccccccccccccc" />
      <path
         id="path847"
         style="fill:#2a2a2a;fill-opacity:1;stroke:#2a2a2a;stroke-width:1.01007px;stroke-linecap:butt;stroke-linejoin:miter;stroke-opacity:1"
         d="m 387.05985,402.93179 c 36.2562,-0.91863 59.14556,41.20515 88.34502,16.87607 2.28167,-2.11962 6.0466,-8.25516 6.12736,-12.08623 -6.16125,5.40166 -11.02349,8.24833 -17.54276,8.94731 -25.7578,-15.5526 -34.03498,-35.32223 -65.71644,-37.28526 -14.92163,0.37928 -19.10361,14.54633 -11.21318,23.54811 z"
         sodipodi:nodetypes="cccccc" />
      <path
         id="path847-7"
         style="fill:#2a2a2a;fill-opacity:1;stroke:#2a2a2a;stroke-width:0.844833px;stroke-linecap:butt;stroke-linejoin:miter;stroke-opacity:1"
         d="m 381.69776,403.38623 c -22.82424,-10.56554 -32.18828,24.26388 -46.0373,26.65467 -5.60776,-3.1714 -11.59947,-13.08042 -12.16282,-22.19371 7.0943,8.57515 10.40149,9.00883 12.70889,3.06966 11.14522,-22.92481 11.11296,-27.40465 36.77175,-30.33499 13.52307,1.06575 15.52768,13.73527 8.71948,22.80437 z"
         sodipodi:nodetypes="cccccc" />
    </g>
    <g
       aria-label="Montaigne
Laboetie's friend"
       id="text835"
       style="font-style:normal;font-weight:normal;font-size:60.9583px;line-height:1.25;font-family:sans-serif;fill:#000000;fill-opacity:1;stroke:none;stroke-width:1.52396">
      <path
         d="m 621.1424,259.93112 v -5.0005 q 5.8736,0 9.60414,-1.11122 3.73053,-1.1906 5.07987,-3.33367 1.42872,-2.22245 1.74621,-3.65116 0.31749,-1.50809 0.31749,-3.96865 v -81.278 q 0,-4.68301 -2.0637,-6.11173 -1.98432,-1.50809 -10.79473,-1.50809 h -3.88928 v -5.07987 h 27.46307 q 2.9368,0 3.73054,0.55561 0.79373,0.47624 1.98432,3.01618 l 35.24163,91.04088 35.55913,-91.51712 q 0.79373,-2.30182 1.50809,-2.69869 0.79373,-0.39686 3.88928,-0.39686 h 27.46307 v 5.07987 h -3.88928 q -8.81041,0 -10.87411,1.50809 -1.98432,1.42872 -1.98432,6.11173 v 85.64351 q 0,4.68301 1.98432,6.1911 2.0637,1.50809 10.87411,1.50809 h 3.88928 v 5.0005 q -6.03235,-0.47624 -23.2563,-0.47624 -17.3827,0 -23.41505,0.47624 v -5.0005 h 3.96865 q 8.81041,0 10.79474,-1.42871 1.98432,-1.50809 1.98432,-6.27048 V 153.9681 h -0.15874 L 687.9745,256.83557 q -1.11122,3.09555 -2.9368,3.09555 -1.98433,0 -3.25429,-3.57179 L 642.57312,155.23807 h -0.15875 v 87.62785 q 0,2.46056 0.3175,3.96865 0.31749,1.42871 1.66683,3.65116 1.42872,2.14307 5.15925,3.33367 3.73053,1.11122 9.60414,1.11122 v 5.0005 q -17.06521,-0.47624 -19.04953,-0.47624 -1.90496,0 -18.97016,0.47624 z"
         style="font-style:normal;font-variant:normal;font-weight:normal;font-stretch:normal;font-size:162.556px;font-family:'CMU Serif';-inkscape-font-specification:'CMU Serif, Normal';font-variant-ligatures:normal;font-variant-caps:normal;font-variant-numeric:normal;font-variant-east-asian:normal;opacity:0.999;stroke-width:1.52396"
         id="path894" />
      <path
         d="m 779.17413,251.20009 q -10.71536,-10.63599 -10.71536,-26.03436 0,-15.47775 10.47725,-26.74872 10.55661,-11.35035 25.63749,-11.35035 14.76339,0 25.32,11.27098 10.63599,11.1916 10.63599,26.82809 0,15.319 -10.71536,25.95498 -10.63599,10.63599 -25.39938,10.63599 -14.44589,0 -25.24063,-10.55661 z m 2.77806,-27.3837 q 0,15.79523 4.1274,22.93881 6.34984,10.8741 18.49392,10.8741 6.03235,0 11.03285,-3.25429 5.07988,-3.2543 7.85793,-8.73104 3.57179,-7.14357 3.57179,-21.82758 0,-15.63649 -4.28614,-22.54195 -6.34985,-10.55661 -18.33518,-10.55661 -5.23862,0 -10.39787,2.77805 -5.07987,2.69869 -8.17542,8.09605 -3.88928,7.14358 -3.88928,22.22446 z"
         style="font-style:normal;font-variant:normal;font-weight:normal;font-stretch:normal;font-size:162.556px;font-family:'CMU Serif';-inkscape-font-specification:'CMU Serif, Normal';font-variant-ligatures:normal;font-variant-caps:normal;font-variant-numeric:normal;font-variant-east-asian:normal;opacity:0.999;stroke-width:1.52396"
         id="path896" />
      <path
         d="m 850.45113,259.93112 v -5.0005 q 8.65166,0 10.63599,-1.03185 1.98432,-1.11122 1.98432,-6.34984 v -43.57581 q 0,-6.03235 -2.14307,-7.54044 -2.0637,-1.50808 -10.47724,-1.50808 v -5.07988 l 22.85944,-1.74621 v 17.06521 q 7.61981,-17.06521 24.05003,-17.06521 12.22345,0 17.06521,6.03236 3.57178,4.04802 4.28614,8.57229 0.79373,4.52426 0.79373,16.27147 v 31.03486 q 0.15875,3.41304 2.77806,4.20677 2.61931,0.71436 9.92163,0.71436 v 5.0005 q -16.58897,-0.47624 -18.2558,-0.47624 -1.26997,0 -18.33518,0.47624 v -5.0005 q 8.65167,0 10.63599,-1.03185 2.0637,-1.11122 2.0637,-6.34984 v -37.86095 q 0,-8.25479 -2.53994,-13.09655 -2.53993,-4.92113 -9.52476,-4.92113 -8.41354,0 -15.16025,7.0642 -6.74671,7.0642 -6.74671,18.97016 v 29.84427 q 0,5.23862 1.98432,6.34984 2.0637,1.03185 10.63599,1.03185 v 5.0005 q -16.58897,-0.47624 -18.17643,-0.47624 -1.26996,0 -18.33517,0.47624 z"
         style="font-style:normal;font-variant:normal;font-weight:normal;font-stretch:normal;font-size:162.556px;font-family:'CMU Serif';-inkscape-font-specification:'CMU Serif, Normal';font-variant-ligatures:normal;font-variant-caps:normal;font-variant-numeric:normal;font-variant-east-asian:normal;opacity:0.999;stroke-width:1.52396"
         id="path898" />
      <path
         d="m 933.95157,194.9246 v -3.57179 q 7.46106,-0.31749 12.38219,-5.55611 5.0005,-5.318 6.66734,-11.82659 1.74621,-6.50859 1.90495,-14.04903 h 4.04803 v 29.92364 h 23.2563 v 5.07988 h -23.2563 v 45.16326 q 0,17.54144 10.95348,17.54144 4.68301,0 7.77856,-4.76238 3.09554,-4.84176 3.09554,-13.41404 v -8.96916 h 4.04803 v 9.28665 q 0,8.81041 -4.04803,15.39837 -4.04802,6.58796 -12.0647,6.58796 -2.9368,0 -5.8736,-0.79373 -2.85743,-0.71436 -6.66734,-2.61931 -3.73053,-1.98433 -6.11172,-6.74671 -2.30182,-4.84175 -2.30182,-11.82658 V 194.9246 Z"
         style="font-style:normal;font-variant:normal;font-weight:normal;font-stretch:normal;font-size:162.556px;font-family:'CMU Serif';-inkscape-font-specification:'CMU Serif, Normal';font-variant-ligatures:normal;font-variant-caps:normal;font-variant-numeric:normal;font-variant-east-asian:normal;opacity:0.999;stroke-width:1.52396"
         id="path900" />
      <path
         d="m 1000.7043,244.45338 q 0,-13.81091 16.2715,-21.11323 9.7629,-4.68301 29.9236,-5.87361 v -5.95298 q 0,-10.08037 -5.318,-15.39837 -5.2386,-5.39736 -11.9059,-5.39736 -11.906,0 -17.6208,7.46106 4.8417,0.15875 6.5879,2.61931 1.7462,2.38119 1.7462,4.84176 0,3.25429 -2.0637,5.39737 -1.9843,2.06369 -5.3973,2.06369 -3.2543,0 -5.3974,-1.98432 -2.1431,-2.0637 -2.1431,-5.63549 0,-7.9373 7.1436,-13.17592 7.2229,-5.23863 17.4621,-5.23863 13.3346,0 22.2244,8.96916 2.7781,2.77806 4.1274,6.34984 1.4287,3.57179 1.5875,5.95298 0.1587,2.30182 0.1587,6.90546 v 32.46357 q 0,0.95248 0.3175,2.53994 0.3175,1.58746 1.7462,3.65116 1.5081,1.98433 3.9687,1.98433 5.8736,0 5.7942,-10.39787 v -9.1279 h 4.1274 v 9.1279 q 0,8.65166 -4.6036,12.0647 -4.5243,3.33367 -8.7311,3.33367 -5.3973,0 -8.8104,-3.96865 -3.413,-3.96866 -3.8892,-9.36602 -2.4606,6.19109 -8.0961,10.23912 -5.5561,3.96865 -13.1759,3.96865 -5.8736,0 -11.4297,-1.50809 -5.4768,-1.42871 -10.0804,-5.47674 -4.5243,-4.12739 -4.5243,-10.31849 z m 12.541,-0.15875 q 0,6.03235 4.2861,9.92163 4.2861,3.88928 10.3185,3.88928 6.8261,0 12.9378,-5.23862 6.1117,-5.31799 6.1117,-15.71586 v -16.27148 q -18.0177,0.63499 -25.8756,7.85793 -7.7785,7.14358 -7.7785,15.55712 z"
         style="font-style:normal;font-variant:normal;font-weight:normal;font-stretch:normal;font-size:162.556px;font-family:'CMU Serif';-inkscape-font-specification:'CMU Serif, Normal';font-variant-ligatures:normal;font-variant-caps:normal;font-variant-numeric:normal;font-variant-east-asian:normal;opacity:0.999;stroke-width:1.52396"
         id="path902" />
      <path
         d="m 1080.5536,259.93112 v -5.0005 q 8.6516,0 10.636,-1.03185 1.9843,-1.11122 1.9843,-6.34984 v -43.73455 q 0,-6.03235 -2.0637,-7.46107 -1.9843,-1.42871 -9.9216,-1.42871 v -5.07988 l 22.7007,-1.74621 v 59.60916 q 0,4.84176 1.7462,6.03235 1.7462,1.1906 9.6835,1.1906 v 5.0005 q -16.589,-0.47624 -16.9065,-0.47624 -2.2224,0 -17.8589,0.47624 z m 6.8261,-100.16878 q 0,-3.2543 2.4605,-5.87361 2.54,-2.69868 6.1118,-2.69868 3.5717,0 6.1117,2.46056 2.5399,2.38119 2.5399,6.1911 0,3.73053 -2.5399,6.1911 -2.54,2.38119 -6.1117,2.38119 -3.7306,0 -6.1911,-2.61931 -2.3812,-2.61931 -2.3812,-6.03235 z"
         style="font-style:normal;font-variant:normal;font-weight:normal;font-stretch:normal;font-size:162.556px;font-family:'CMU Serif';-inkscape-font-specification:'CMU Serif, Normal';font-variant-ligatures:normal;font-variant-caps:normal;font-variant-numeric:normal;font-variant-east-asian:normal;opacity:0.999;stroke-width:1.52396"
         id="path904" />
      <path
         d="m 1124.685,272.78956 q 0,-5.23863 3.9687,-9.76289 4.048,-4.52426 11.0328,-6.50859 -7.1436,-4.52426 -7.1436,-14.44589 0,-7.61982 5.0005,-13.49342 -7.6198,-6.34985 -7.6198,-16.74771 0,-9.60414 7.6198,-16.66834 7.6198,-7.06421 18.7321,-7.06421 9.7629,0 17.2239,5.87361 7.7786,-7.61981 17.224,-7.69919 4.2067,0 6.1911,2.61931 2.0637,2.61932 2.0637,5.39737 0,2.46057 -1.5875,3.65116 -1.5081,1.1906 -3.0955,1.1906 -1.9844,0 -3.4131,-1.26997 -1.3493,-1.34934 -1.3493,-3.41304 0,-3.41304 2.6193,-4.44489 -0.4762,-0.15875 -1.5875,-0.15875 -7.9373,0 -14.684,6.34985 6.6674,6.19109 6.6674,15.79523 0,9.60414 -7.6199,16.66834 -7.6198,7.0642 -18.6526,7.0642 -9.1279,0 -16.1128,-5.07987 -2.778,3.25429 -2.778,7.69918 0,4.04803 2.4606,7.22295 2.4605,3.17492 6.191,3.65116 1.1113,0.15875 12.1441,0.15875 6.5086,0 10.0804,0.15874 3.5718,0.15875 8.6517,1.26997 5.1592,1.03185 9.2072,3.09555 10.5567,5.87361 10.636,18.57329 0,9.28665 -10.7153,15.08088 -10.636,5.87361 -25.3994,5.87361 -14.9221,0 -25.4788,-5.95298 -10.4772,-5.87361 -10.4772,-14.68401 z m 8.4929,0 q 0,6.66733 7.8579,11.74721 7.858,5.15924 19.7639,5.15924 11.6679,0 19.5258,-5.07987 7.9373,-5.0005 7.9373,-11.82658 0,-4.84176 -2.778,-7.93731 -2.7781,-3.09555 -8.493,-4.36552 -5.6354,-1.19059 -9.6041,-1.42871 -3.9687,-0.23812 -11.271,-0.23812 h -9.6041 q -5.5561,0.31749 -9.4454,4.36552 -3.8893,4.04802 -3.8893,9.60414 z m 8.8898,-60.79976 q 0,20.00201 14.2078,20.00201 7.1435,0 11.5091,-6.50859 2.6193,-4.36552 2.6193,-13.65216 0,-20.00201 -14.1284,-20.00201 -7.1436,0 -11.5885,6.50859 -2.6193,4.36552 -2.6193,13.65216 z"
         style="font-style:normal;font-variant:normal;font-weight:normal;font-stretch:normal;font-size:162.556px;font-family:'CMU Serif';-inkscape-font-specification:'CMU Serif, Normal';font-variant-ligatures:normal;font-variant-caps:normal;font-variant-numeric:normal;font-variant-east-asian:normal;opacity:0.999;stroke-width:1.52396"
         id="path906" />
      <path
         d="m 1206.6773,259.93112 v -5.0005 q 8.6517,0 10.636,-1.03185 1.9844,-1.11122 1.9844,-6.34984 v -43.57581 q 0,-6.03235 -2.1431,-7.54044 -2.0637,-1.50808 -10.4773,-1.50808 v -5.07988 l 22.8595,-1.74621 v 17.06521 q 7.6198,-17.06521 24.05,-17.06521 12.2235,0 17.0652,6.03236 3.5718,4.04802 4.2862,8.57229 0.7937,4.52426 0.7937,16.27147 v 31.03486 q 0.1587,3.41304 2.778,4.20677 2.6194,0.71436 9.9217,0.71436 v 5.0005 q -16.589,-0.47624 -18.2558,-0.47624 -1.27,0 -18.3352,0.47624 v -5.0005 q 8.6517,0 10.636,-1.03185 2.0637,-1.11122 2.0637,-6.34984 v -37.86095 q 0,-8.25479 -2.5399,-13.09655 -2.54,-4.92113 -9.5248,-4.92113 -8.4136,0 -15.1603,7.0642 -6.7467,7.0642 -6.7467,18.97016 v 29.84427 q 0,5.23862 1.9844,6.34984 2.0637,1.03185 10.6359,1.03185 v 5.0005 q -16.5889,-0.47624 -18.1764,-0.47624 -1.27,0 -18.3352,0.47624 z"
         style="font-style:normal;font-variant:normal;font-weight:normal;font-stretch:normal;font-size:162.556px;font-family:'CMU Serif';-inkscape-font-specification:'CMU Serif, Normal';font-variant-ligatures:normal;font-variant-caps:normal;font-variant-numeric:normal;font-variant-east-asian:normal;opacity:0.999;stroke-width:1.52396"
         id="path908" />
      <path
         d="m 1296.1308,224.13388 q 0,-15.319 9.8422,-26.19311 9.8423,-10.87411 23.9707,-10.87411 14.2871,0 21.6688,9.28665 7.4611,9.28665 7.4611,22.62132 0,2.46056 -0.635,2.9368 -0.635,0.47624 -3.413,0.47624 h -45.4014 q 0,16.58897 4.9211,24.36753 6.8261,10.8741 18.3352,10.8741 1.5875,0 3.4924,-0.31749 1.905,-0.31749 5.7942,-1.66683 3.8893,-1.42872 7.3024,-5.15925 3.413,-3.73053 5.3973,-9.60414 0.4763,-2.30182 2.0637,-2.22244 2.1431,0 2.1431,1.90495 0,1.42871 -1.5875,4.68301 -1.5081,3.17492 -4.4449,6.98483 -2.9368,3.8099 -8.6516,6.66733 -5.6355,2.85743 -12.4616,2.85743 -14.2871,0 -25.0819,-10.79473 -10.7153,-10.87411 -10.7153,-26.82809 z m 13.6521,-5.15925 h 38.5753 q 0,-3.41304 -0.6349,-7.22295 -0.5557,-3.8099 -2.3019,-9.04852 -1.6668,-5.318 -5.6355,-8.65167 -3.9686,-3.33366 -9.8422,-3.33366 -2.6193,0 -5.4768,1.11122 -2.778,1.11122 -6.191,3.8099 -3.4131,2.69869 -5.7943,8.81041 -2.3812,6.11173 -2.6987,14.52527 z"
         style="font-style:normal;font-variant:normal;font-weight:normal;font-stretch:normal;font-size:162.556px;font-family:'CMU Serif';-inkscape-font-specification:'CMU Serif, Normal';font-variant-ligatures:normal;font-variant-caps:normal;font-variant-numeric:normal;font-variant-east-asian:normal;opacity:0.999;stroke-width:1.52396"
         id="path910" />
      <path
         d="m 618.48338,406.75095 v -3.1253 h 2.43079 q 5.50648,0 6.74668,-0.89294 1.2898,-0.94255 1.2898,-3.91902 v -53.52694 q 0,-2.92686 -1.2898,-3.81981 -1.28981,-0.94255 -6.74668,-0.94255 h -2.43079 v -3.1749 q 3.57177,0.29764 15.42806,0.29764 13.39414,0 17.06513,-0.29764 v 3.1749 h -3.37334 q -4.66315,0 -6.79629,0.5953 -2.13314,0.59529 -2.48039,1.43863 -0.34726,0.79372 -0.34726,2.82765 v 54.17184 q 0,2.62922 0.74412,3.37333 0.79373,0.69451 4.21667,0.69451 h 8.33413 q 5.15923,0 8.87982,-1.53784 3.72059,-1.53785 5.70491,-3.47255 1.98431,-1.93471 3.27412,-5.55609 1.33941,-3.67099 1.73628,-6.00256 0.44647,-2.33157 0.84333,-6.49863 h 2.53001 l -2.82766,26.19297 z"
         style="font-style:normal;font-variant:normal;font-weight:normal;font-stretch:normal;font-size:101.597px;font-family:'CMU Serif';-inkscape-font-specification:'CMU Serif, Normal';font-variant-ligatures:normal;font-variant-caps:normal;font-variant-numeric:normal;font-variant-east-asian:normal;opacity:0.999;stroke-width:1.52396"
         id="path912" />
      <path
         d="m 682.87445,397.07741 q 0,-8.63178 10.16962,-13.1957 6.10177,-2.92687 18.70218,-3.67099 v -3.72059 q 0,-6.30021 -3.32373,-9.62394 -3.27412,-3.37333 -7.44118,-3.37333 -7.44119,0 -11.01296,4.66314 3.02608,0.0992 4.11746,1.63706 1.09137,1.48824 1.09137,3.02608 0,2.03393 -1.2898,3.37334 -1.2402,1.28981 -3.37334,1.28981 -2.03393,0 -3.37334,-1.2402 -1.33941,-1.28981 -1.33941,-3.52216 0,-4.96079 4.46471,-8.23492 4.51432,-3.27412 10.91374,-3.27412 8.33413,0 13.89021,5.6057 1.73628,1.73627 2.57961,3.96863 0.89295,2.23235 0.99216,3.72059 0.0992,1.43863 0.0992,4.31589 v 20.28963 q 0,0.5953 0.19843,1.58746 0.19843,0.99216 1.09137,2.28196 0.94255,1.2402 2.4804,1.2402 3.67099,0 3.62138,-6.49864 v -5.70491 h 2.57961 v 5.70491 q 0,5.40727 -2.87726,7.54041 -2.82765,2.08353 -5.45687,2.08353 -3.37334,0 -5.50648,-2.4804 -2.13314,-2.48039 -2.43079,-5.85373 -1.53784,3.86942 -5.06,6.39942 -3.47256,2.48039 -8.23492,2.48039 -3.67098,0 -7.14353,-0.94255 -3.42295,-0.89294 -6.30021,-3.42294 -2.82765,-2.57961 -2.82765,-6.44903 z m 7.83805,-0.0992 q 0,3.77021 2.67883,6.20099 2.67882,2.43079 6.44903,2.43079 4.26628,0 8.08608,-3.27412 3.81981,-3.32373 3.81981,-9.82237 v -10.16962 q -11.26099,0.39686 -16.17218,4.91118 -4.86157,4.46472 -4.86157,9.72315 z"
         style="font-style:normal;font-variant:normal;font-weight:normal;font-stretch:normal;font-size:101.597px;font-family:'CMU Serif';-inkscape-font-specification:'CMU Serif, Normal';font-variant-ligatures:normal;font-variant-caps:normal;font-variant-numeric:normal;font-variant-east-asian:normal;opacity:0.999;stroke-width:1.52396"
         id="path914" />
      <path
         d="m 732.23432,340.52439 v -3.1749 l 14.63433,-1.09138 v 32.19554 q 5.90335,-6.59786 13.93983,-6.59786 8.73099,0 15.13041,6.69707 6.39942,6.69707 6.39942,16.2714 0,9.67354 -6.69707,16.37061 -6.69707,6.69706 -15.97375,6.69706 -8.43334,0 -13.29492,-7.44118 -3.57176,6.20099 -3.67098,6.3002 h -2.53 v -60.57126 q 0,-3.7702 -1.33942,-4.71275 -1.33941,-0.94255 -6.59785,-0.94255 z m 14.93198,54.66792 q 0,2.13314 1.43863,4.26628 4.01824,6.15138 10.56649,6.15138 0.0496,0 0.0992,0 7.09393,0 11.50904,-6.49864 3.1253,-4.86157 3.1253,-14.38629 0,-9.4255 -2.92687,-14.13825 -4.06785,-6.49864 -10.6657,-6.49864 -7.44119,0 -12.00512,6.49864 -1.14098,1.63706 -1.14098,3.67098 z"
         style="font-style:normal;font-variant:normal;font-weight:normal;font-stretch:normal;font-size:101.597px;font-family:'CMU Serif';-inkscape-font-specification:'CMU Serif, Normal';font-variant-ligatures:normal;font-variant-caps:normal;font-variant-numeric:normal;font-variant-east-asian:normal;opacity:0.999;stroke-width:1.52396"
         id="path916" />
      <path
         d="m 798.11362,401.29408 q -6.69707,-6.64746 -6.69707,-16.27139 0,-9.67354 6.54824,-16.71787 6.59785,-7.09393 16.02336,-7.09393 9.22707,0 15.82492,7.04432 6.64746,6.99472 6.64746,16.76748 0,9.57432 -6.69707,16.22178 -6.64746,6.64746 -15.87453,6.64746 -9.02864,0 -15.77531,-6.59785 z m 1.73627,-17.11473 q 0,9.87198 2.57961,14.33669 3.96864,6.79628 11.55865,6.79628 3.7702,0 6.8955,-2.03392 3.1749,-2.03393 4.91118,-5.45687 2.23236,-4.46471 2.23236,-13.64218 0,-9.77275 -2.67883,-14.08864 -3.96863,-6.59785 -11.45943,-6.59785 -3.27412,0 -6.49863,1.73627 -3.17491,1.68667 -5.10962,5.06001 -2.43079,4.46471 -2.43079,13.89021 z"
         style="font-style:normal;font-variant:normal;font-weight:normal;font-stretch:normal;font-size:101.597px;font-family:'CMU Serif';-inkscape-font-specification:'CMU Serif, Normal';font-variant-ligatures:normal;font-variant-caps:normal;font-variant-numeric:normal;font-variant-east-asian:normal;opacity:0.999;stroke-width:1.52396"
         id="path918" />
      <path
         d="m 845.04271,384.37779 q 0,-9.57433 6.15138,-16.37061 6.15138,-6.79629 14.98159,-6.79629 8.92942,0 13.54296,5.80413 4.66314,5.80412 4.66314,14.13825 0,1.53785 -0.39686,1.83549 -0.39687,0.29765 -2.13314,0.29765 h -28.37573 q 0,10.36805 3.07569,15.22963 4.26628,6.79628 11.45943,6.79628 0.99216,0 2.18275,-0.19843 1.19059,-0.19843 3.62138,-1.04176 2.43078,-0.89295 4.56392,-3.22452 2.13314,-2.33157 3.37334,-6.00256 0.29765,-1.43862 1.28981,-1.38902 1.33941,0 1.33941,1.19059 0,0.89295 -0.99216,2.92687 -0.94255,1.98432 -2.77804,4.3655 -1.83549,2.38118 -5.40726,4.16706 -3.52216,1.78588 -7.78844,1.78588 -8.92943,0 -15.6761,-6.74667 -6.69707,-6.79628 -6.69707,-16.76747 z m 8.53256,-3.22452 h 24.10944 q 0,-2.13314 -0.39686,-4.51432 -0.34726,-2.38118 -1.43863,-5.6553 -1.04177,-3.32373 -3.52216,-5.40726 -2.4804,-2.08353 -6.15138,-2.08353 -1.63706,0 -3.42295,0.69451 -1.73627,0.69451 -3.86941,2.38118 -2.13314,1.68666 -3.62138,5.50647 -1.48824,3.81981 -1.68667,9.07825 z"
         style="font-style:normal;font-variant:normal;font-weight:normal;font-stretch:normal;font-size:101.597px;font-family:'CMU Serif';-inkscape-font-specification:'CMU Serif, Normal';font-variant-ligatures:normal;font-variant-caps:normal;font-variant-numeric:normal;font-variant-east-asian:normal;opacity:0.999;stroke-width:1.52396"
         id="path920" />
      <path
         d="m 889.24336,366.12207 v -2.23235 q 4.66315,-0.19843 7.73884,-3.47256 3.1253,-3.32373 4.16706,-7.39157 1.09138,-4.06785 1.19059,-8.7806 h 2.53001 v 18.70218 h 14.53511 v 3.1749 h -14.53511 v 28.22691 q 0,10.96334 6.84589,10.96334 2.92686,0 4.86157,-2.97647 1.93471,-3.02608 1.93471,-8.38374 v -5.60569 h 2.53 v 5.80412 q 0,5.50648 -2.53,9.62394 -2.53,4.11745 -7.5404,4.11745 -1.83549,0 -3.67099,-0.49607 -1.78588,-0.44648 -4.16706,-1.63707 -2.33157,-1.24019 -3.81981,-4.21667 -1.43863,-3.02608 -1.43863,-7.39158 v -28.02847 z"
         style="font-style:normal;font-variant:normal;font-weight:normal;font-stretch:normal;font-size:101.597px;font-family:'CMU Serif';-inkscape-font-specification:'CMU Serif, Normal';font-variant-ligatures:normal;font-variant-caps:normal;font-variant-numeric:normal;font-variant-east-asian:normal;opacity:0.999;stroke-width:1.52396"
         id="path922" />
      <path
         d="m 930.07066,406.75095 v -3.1253 q 5.40727,0 6.64746,-0.6449 1.2402,-0.69451 1.2402,-3.96863 v -27.33396 q 0,-3.7702 -1.2898,-4.66314 -1.2402,-0.89295 -6.20099,-0.89295 v -3.1749 l 14.18786,-1.09138 v 37.25554 q 0,3.02609 1.09137,3.77021 1.09138,0.74411 6.05217,0.74411 v 3.1253 q -10.36805,-0.29764 -10.56649,-0.29764 -1.38902,0 -11.16178,0.29764 z m 4.26628,-62.60518 q 0,-2.03392 1.53785,-3.67099 1.58745,-1.68666 3.81981,-1.68666 2.23236,0 3.81981,1.53784 1.58745,1.48824 1.58745,3.86942 0,2.33157 -1.58745,3.86942 -1.58745,1.48823 -3.81981,1.48823 -2.33157,0 -3.86942,-1.63706 -1.48824,-1.63706 -1.48824,-3.7702 z"
         style="font-style:normal;font-variant:normal;font-weight:normal;font-stretch:normal;font-size:101.597px;font-family:'CMU Serif';-inkscape-font-specification:'CMU Serif, Normal';font-variant-ligatures:normal;font-variant-caps:normal;font-variant-numeric:normal;font-variant-east-asian:normal;opacity:0.999;stroke-width:1.52396"
         id="path924" />
      <path
         d="m 957.65266,384.37779 q 0,-9.57433 6.15138,-16.37061 6.15138,-6.79629 14.98159,-6.79629 8.92943,0 13.54296,5.80413 4.66315,5.80412 4.66315,14.13825 0,1.53785 -0.39687,1.83549 -0.39686,0.29765 -2.13314,0.29765 h -28.37572 q 0,10.36805 3.07569,15.22963 4.26628,6.79628 11.45943,6.79628 0.99215,0 2.18274,-0.19843 1.19059,-0.19843 3.62138,-1.04176 2.43079,-0.89295 4.56393,-3.22452 2.13314,-2.33157 3.37334,-6.00256 0.29764,-1.43862 1.2898,-1.38902 1.33942,0 1.33942,1.19059 0,0.89295 -0.99216,2.92687 -0.94255,1.98432 -2.77805,4.3655 -1.83549,2.38118 -5.40726,4.16706 -3.52216,1.78588 -7.78844,1.78588 -8.92942,0 -15.6761,-6.74667 -6.69707,-6.79628 -6.69707,-16.76747 z m 8.53256,-3.22452 h 24.10945 q 0,-2.13314 -0.39687,-4.51432 -0.34725,-2.38118 -1.43862,-5.6553 -1.04177,-3.32373 -3.52217,-5.40726 -2.48039,-2.08353 -6.15138,-2.08353 -1.63706,0 -3.42294,0.69451 -1.73628,0.69451 -3.86942,2.38118 -2.13314,1.68666 -3.62138,5.50647 -1.48823,3.81981 -1.68667,9.07825 z"
         style="font-style:normal;font-variant:normal;font-weight:normal;font-stretch:normal;font-size:101.597px;font-family:'CMU Serif';-inkscape-font-specification:'CMU Serif, Normal';font-variant-ligatures:normal;font-variant-caps:normal;font-variant-numeric:normal;font-variant-east-asian:normal;opacity:0.999;stroke-width:1.52396"
         id="path926" />
      <path
         d="m 1009.2449,339.2842 q 0,-2.53001 1.5378,-3.57177 1.5379,-1.09138 3.1749,-1.09138 2.034,0 3.3238,1.2402 1.3394,1.19059 1.3394,3.42295 0,0.99215 -0.099,1.53784 l -3.3734,30.65769 h -2.3315 l -3.4726,-30.65769 q -0.099,-0.54569 -0.099,-1.53784 z"
         style="font-style:normal;font-variant:normal;font-weight:normal;font-stretch:normal;font-size:101.597px;font-family:'CMU Serif';-inkscape-font-specification:'CMU Serif, Normal';font-variant-ligatures:normal;font-variant-caps:normal;font-variant-numeric:normal;font-variant-east-asian:normal;opacity:0.999;stroke-width:1.52396"
         id="path928" />
      <path
         d="M 1031.5188,405.41154 V 392.0174 q 0,-1.14098 0.05,-1.53784 0.05,-0.39686 0.3472,-0.69451 0.2977,-0.29765 0.893,-0.29765 0.6945,0 0.9425,0.29765 0.2976,0.29765 0.4961,1.43863 1.5378,6.99471 4.8119,10.71531 3.3238,3.67098 9.3263,3.67098 5.7049,0 8.5822,-2.53 2.8773,-2.53001 2.8773,-6.69707 0,-7.44119 -10.5665,-9.32629 -6.1018,-1.2402 -8.6318,-2.03392 -2.53,-0.84334 -4.7624,-2.67883 -4.3655,-3.57177 -4.3655,-8.63178 0,-5.06 3.8199,-8.7806 3.8694,-3.72059 12.4019,-3.72059 5.7049,0 9.5744,2.87726 1.1409,-0.89294 1.7362,-1.63706 1.3394,-1.2402 2.034,-1.2402 0.7937,0 0.9425,0.54569 0.1488,0.49608 0.1488,1.93471 v 10.21923 q 0,1.14098 -0.05,1.53784 -0.05,0.39686 -0.3472,0.69451 -0.2977,0.24804 -0.9426,0.24804 -1.141,0 -1.1906,-0.94255 -0.7937,-12.30276 -11.9059,-12.30276 -6.0025,0 -8.6814,2.33157 -2.6788,2.28197 -2.6788,5.40726 0,1.73628 0.7937,3.07569 0.8434,1.28981 1.8851,2.08354 1.0914,0.74412 3.0757,1.48823 1.9844,0.69451 3.1749,0.94255 1.2402,0.24804 3.5718,0.74412 8.1357,1.53785 11.5587,4.86158 4.2662,4.26628 4.2662,9.67354 0,6.00256 -4.0678,10.07041 -4.0679,4.06784 -12.2532,4.06784 -6.5978,0 -11.2114,-4.4151 -0.5952,0.5953 -1.0417,1.14098 -0.4465,0.49608 -0.6449,0.69451 -0.1488,0.19844 -0.1985,0.34726 -0.05,0.0992 -0.1488,0.19843 -2.0339,2.03392 -2.53,2.03392 -0.7937,0 -0.9425,-0.54568 -0.1489,-0.49608 -0.1489,-1.93471 z"
         style="font-style:normal;font-variant:normal;font-weight:normal;font-stretch:normal;font-size:101.597px;font-family:'CMU Serif';-inkscape-font-specification:'CMU Serif, Normal';font-variant-ligatures:normal;font-variant-caps:normal;font-variant-numeric:normal;font-variant-east-asian:normal;opacity:0.999;stroke-width:1.52396"
         id="path930" />
      <path
         d="m 1105.2858,366.12207 v -3.1749 h 7.9869 v -11.65786 q 0,-7.5404 4.8616,-11.85629 4.9111,-4.31589 10.9137,-4.31589 3.9686,0 6.5482,2.13314 2.5797,2.13314 2.5797,5.0104 0,1.93471 -1.1906,3.22451 -1.141,1.2402 -3.2742,1.2402 -2.0339,0 -3.2245,-1.2898 -1.141,-1.28981 -1.141,-3.07569 0,-3.27413 3.0261,-4.26628 -1.5378,-0.69452 -3.3237,-0.74412 -3.671,0 -6.5482,3.7702 -2.8277,3.7702 -2.8277,10.0704 v 11.75708 h 11.9059 v 3.1749 h -11.5586 v 32.69162 q 0,2.92686 1.1906,3.86941 1.2402,0.94255 6.4986,0.94255 h 2.1331 v 3.1253 q -4.0678,-0.29764 -12.898,-0.29764 -1.2402,0 -3.1749,0.0496 -1.8851,0.0496 -4.4647,0.14883 -2.53,0.0992 -3.9191,0.0992 v -3.1253 q 5.4073,0 6.6475,-0.6449 1.2402,-0.69451 1.2402,-3.96863 v -32.89005 z"
         style="font-style:normal;font-variant:normal;font-weight:normal;font-stretch:normal;font-size:101.597px;font-family:'CMU Serif';-inkscape-font-specification:'CMU Serif, Normal';font-variant-ligatures:normal;font-variant-caps:normal;font-variant-numeric:normal;font-variant-east-asian:normal;opacity:0.999;stroke-width:1.52396"
         id="path932" />
      <path
         d="m 1135.6954,406.75095 v -3.1253 q 5.4073,0 6.6475,-0.6449 1.2898,-0.69451 1.2898,-3.96863 v -27.23474 q 0,-3.7702 -1.3394,-4.71276 -1.2898,-0.94255 -6.5979,-0.94255 v -3.1749 l 14.1383,-1.09138 v 11.16178 q 1.4386,-4.36549 4.4647,-7.73883 3.0757,-3.42295 8.0365,-3.42295 3.2741,0 5.3577,1.8355 2.1331,1.83549 2.1331,4.36549 0,2.23236 -1.389,3.37334 -1.3394,1.09137 -2.9765,1.09137 -1.8355,0 -3.1253,-1.14098 -1.2402,-1.19059 -1.2402,-3.22451 0,-1.2402 0.5457,-2.18275 0.5953,-0.99216 1.0418,-1.33941 0.4464,-0.34726 0.7441,-0.44647 -0.1985,-0.0992 -1.0914,-0.0992 -5.6057,0 -8.8302,5.60569 -3.1749,5.55609 -3.1749,13.49336 v 15.62649 q 0,2.92686 1.1906,3.86941 1.2402,0.94255 6.5482,0.94255 h 2.1332 v 3.1253 q -4.0679,-0.29764 -12.8981,-0.29764 -1.2402,0 -3.1749,0.0496 -1.9347,0.0496 -4.4647,0.14883 -2.53,0.0992 -3.9687,0.0992 z"
         style="font-style:normal;font-variant:normal;font-weight:normal;font-stretch:normal;font-size:101.597px;font-family:'CMU Serif';-inkscape-font-specification:'CMU Serif, Normal';font-variant-ligatures:normal;font-variant-caps:normal;font-variant-numeric:normal;font-variant-east-asian:normal;opacity:0.999;stroke-width:1.52396"
         id="path934" />
      <path
         d="m 1175.9275,406.75095 v -3.1253 q 5.4072,0 6.6474,-0.6449 1.2402,-0.69451 1.2402,-3.96863 v -27.33396 q 0,-3.7702 -1.2898,-4.66314 -1.2402,-0.89295 -6.201,-0.89295 v -3.1749 l 14.1879,-1.09138 v 37.25554 q 0,3.02609 1.0914,3.77021 1.0913,0.74411 6.0521,0.74411 v 3.1253 q -10.368,-0.29764 -10.5664,-0.29764 -1.3891,0 -11.1618,0.29764 z m 4.2663,-62.60518 q 0,-2.03392 1.5378,-3.67099 1.5875,-1.68666 3.8198,-1.68666 2.2324,0 3.8198,1.53784 1.5875,1.48824 1.5875,3.86942 0,2.33157 -1.5875,3.86942 -1.5874,1.48823 -3.8198,1.48823 -2.3316,0 -3.8694,-1.63706 -1.4882,-1.63706 -1.4882,-3.7702 z"
         style="font-style:normal;font-variant:normal;font-weight:normal;font-stretch:normal;font-size:101.597px;font-family:'CMU Serif';-inkscape-font-specification:'CMU Serif, Normal';font-variant-ligatures:normal;font-variant-caps:normal;font-variant-numeric:normal;font-variant-east-asian:normal;opacity:0.999;stroke-width:1.52396"
         id="path936" />
      <path
         d="m 1203.5095,384.37779 q 0,-9.57433 6.1514,-16.37061 6.1513,-6.79629 14.9815,-6.79629 8.9295,0 13.543,5.80413 4.6631,5.80412 4.6631,14.13825 0,1.53785 -0.3968,1.83549 -0.3969,0.29765 -2.1332,0.29765 h -28.3757 q 0,10.36805 3.0757,15.22963 4.2663,6.79628 11.4594,6.79628 0.9922,0 2.1828,-0.19843 1.1906,-0.19843 3.6214,-1.04176 2.4308,-0.89295 4.5639,-3.22452 2.1331,-2.33157 3.3733,-6.00256 0.2977,-1.43862 1.2898,-1.38902 1.3394,0 1.3394,1.19059 0,0.89295 -0.9921,2.92687 -0.9426,1.98432 -2.7781,4.3655 -1.8354,2.38118 -5.4072,4.16706 -3.5222,1.78588 -7.7885,1.78588 -8.9294,0 -15.6761,-6.74667 -6.697,-6.79628 -6.697,-16.76747 z m 8.5325,-3.22452 h 24.1095 q 0,-2.13314 -0.3969,-4.51432 -0.3472,-2.38118 -1.4386,-5.6553 -1.0418,-3.32373 -3.5222,-5.40726 -2.4804,-2.08353 -6.1514,-2.08353 -1.637,0 -3.4229,0.69451 -1.7363,0.69451 -3.8694,2.38118 -2.1332,1.68666 -3.6214,5.50647 -1.4882,3.81981 -1.6867,9.07825 z"
         style="font-style:normal;font-variant:normal;font-weight:normal;font-stretch:normal;font-size:101.597px;font-family:'CMU Serif';-inkscape-font-specification:'CMU Serif, Normal';font-variant-ligatures:normal;font-variant-caps:normal;font-variant-numeric:normal;font-variant-east-asian:normal;opacity:0.999;stroke-width:1.52396"
         id="path938" />
      <path
         d="m 1249.0495,406.75095 v -3.1253 q 5.4073,0 6.6475,-0.6449 1.2402,-0.69451 1.2402,-3.96863 v -27.23474 q 0,-3.7702 -1.3394,-4.71276 -1.2898,-0.94255 -6.5483,-0.94255 v -3.1749 l 14.2871,-1.09138 v 10.6657 q 4.7624,-10.6657 15.0312,-10.6657 7.6396,0 10.6657,3.77021 2.2323,2.53 2.6788,5.35765 0.4961,2.82765 0.4961,10.16962 v 19.39669 q 0.099,2.13314 1.7363,2.62922 1.637,0.44647 6.201,0.44647 v 3.1253 q -10.3681,-0.29764 -11.4099,-0.29764 -0.7937,0 -11.4594,0.29764 v -3.1253 q 5.4073,0 6.6475,-0.6449 1.2898,-0.69451 1.2898,-3.96863 v -23.66297 q 0,-5.15923 -1.5875,-8.18531 -1.5874,-3.07569 -5.9529,-3.07569 -5.2585,0 -9.4751,4.4151 -4.2167,4.41511 -4.2167,11.85629 v 18.65258 q 0,3.27412 1.2402,3.96863 1.2898,0.6449 6.6475,0.6449 v 3.1253 q -10.3681,-0.29764 -11.3603,-0.29764 -0.7937,0 -11.4594,0.29764 z"
         style="font-style:normal;font-variant:normal;font-weight:normal;font-stretch:normal;font-size:101.597px;font-family:'CMU Serif';-inkscape-font-specification:'CMU Serif, Normal';font-variant-ligatures:normal;font-variant-caps:normal;font-variant-numeric:normal;font-variant-east-asian:normal;opacity:0.999;stroke-width:1.52396"
         id="path940" />
      <path
         d="m 1305.6026,384.92347 q 0,-9.67354 6.7466,-16.37061 6.7467,-6.69707 15.8746,-6.69707 7.7388,0 12.7988,6.30021 v -21.97631 q 0,-3.7702 -1.3394,-4.71275 -1.2898,-0.94255 -6.5483,-0.94255 v -3.1749 l 14.6344,-1.09138 v 61.66263 q 0,3.77021 1.2898,4.76236 1.3394,0.94255 6.5978,0.94255 v 3.1253 l -14.9319,1.14098 v -6.74667 q -5.2585,6.69707 -13.5926,6.74667 -8.731,0 -15.1304,-6.69706 -6.3994,-6.69707 -6.3994,-16.2714 z m 8.4333,0.0992 q 0,9.4255 2.9269,14.08864 4.0678,6.49864 10.6657,6.49864 7.5404,0 12.0051,-7.09393 1.141,-1.73628 1.0914,-3.7702 V 373.9105 q 0,-2.03393 -1.0914,-3.7206 -4.1671,-6.10177 -10.9634,-6.10177 -7.0939,0 -11.509,6.49864 -3.1253,4.86157 -3.1253,14.4359 z"
         style="font-style:normal;font-variant:normal;font-weight:normal;font-stretch:normal;font-size:101.597px;font-family:'CMU Serif';-inkscape-font-specification:'CMU Serif, Normal';font-variant-ligatures:normal;font-variant-caps:normal;font-variant-numeric:normal;font-variant-east-asian:normal;opacity:0.999;stroke-width:1.52396"
         id="path942" />
    </g>
  </g>
</svg>
